# Blender v2.79 (sub 0) OBJ File: 'SphereLight.blend'
# www.blender.org
mtllib SphereLight.mtl
o Pyramids_Cone
v 0.151532 0.000000 0.469523
v -0.000000 -0.151532 0.469523
v -0.151532 0.000000 0.469523
v -0.000000 0.151532 0.469523
v -0.000000 0.000000 0.963131
v -0.000000 0.151532 -0.469523
v 0.151532 0.000000 -0.469523
v -0.000000 -0.151532 -0.469523
v -0.151532 0.000000 -0.469523
v 0.000000 0.000000 -1.000110
v 0.412924 0.000000 -0.151532
v 0.412924 -0.151532 0.000000
v 0.412924 0.000000 0.151532
v 0.412924 0.151532 0.000000
v 0.715988 0.000000 0.000000
v 0.000000 0.000000 -0.963131
v -0.412924 0.000000 -0.151532
v -0.412924 0.151532 0.000000
v -0.412924 -0.000000 0.151532
v -0.412924 -0.151532 0.000000
v -0.715988 -0.000000 0.000000
v 0.000000 0.412924 -0.151532
v 0.151532 0.412924 0.000000
v 0.000000 0.412924 0.151532
v -0.151532 0.412924 0.000000
v -0.000000 0.715988 0.000000
v -0.000000 -0.412924 -0.151532
v -0.151532 -0.412924 0.000000
v -0.000000 -0.412924 0.151532
v 0.151532 -0.412924 0.000000
v 0.000000 -0.715988 0.000000
vn 0.6910 -0.6910 0.2121
vn -0.6910 -0.6910 0.2121
vn -0.6910 0.6910 0.2121
vn 0.6910 0.6910 0.2121
vn 0.0000 0.0000 -1.0000
vn -0.6910 0.6910 -0.2121
vn 0.6910 -0.6910 -0.2121
vn -0.6910 -0.6910 -0.2121
vn 0.6910 0.6910 -0.2121
vn 0.0000 0.0000 1.0000
vn 0.3333 -0.6667 -0.6667
vn 0.3333 -0.6667 0.6667
vn 0.3333 0.6667 0.6667
vn 0.3333 0.6667 -0.6667
vn -1.0000 0.0000 -0.0000
vn -0.3333 0.6667 -0.6667
vn -0.3333 0.6667 0.6667
vn -0.3333 -0.6667 0.6667
vn -0.3333 -0.6667 -0.6667
vn 1.0000 0.0000 -0.0000
vn 0.6667 0.3333 -0.6667
vn 0.6667 0.3333 0.6667
vn -0.6667 0.3333 0.6667
vn -0.6667 0.3333 -0.6667
vn 0.0000 -1.0000 -0.0000
vn -0.6667 -0.3333 -0.6667
vn -0.6667 -0.3333 0.6667
vn 0.6667 -0.3333 0.6667
vn 0.6667 -0.3333 -0.6667
vn 0.0000 1.0000 -0.0000
usemtl SphereLight-Pyramid_
s off
f 1//1 5//1 2//1
f 2//2 5//2 3//2
f 3//3 5//3 4//3
f 4//4 5//4 1//4
f 1//5 2//5 3//5 4//5
f 6//6 16//6 9//6
f 8//7 16//7 7//7
f 9//8 16//8 8//8
f 7//9 16//9 6//9
f 9//10 8//10 7//10 6//10
f 11//11 15//11 12//11
f 12//12 15//12 13//12
f 13//13 15//13 14//13
f 14//14 15//14 11//14
f 11//15 12//15 13//15 14//15
f 17//16 21//16 18//16
f 18//17 21//17 19//17
f 19//18 21//18 20//18
f 20//19 21//19 17//19
f 17//20 18//20 19//20 20//20
f 22//21 26//21 23//21
f 23//22 26//22 24//22
f 24//23 26//23 25//23
f 25//24 26//24 22//24
f 22//25 23//25 24//25 25//25
f 27//26 31//26 28//26
f 28//27 31//27 29//27
f 29//28 31//28 30//28
f 30//29 31//29 27//29
f 27//30 28//30 29//30 30//30
o Sphere_Icosphere
v 0.000000 0.000000 -0.378830
v -0.199160 -0.274124 -0.169420
v -0.322251 0.104704 -0.169420
v 0.000000 0.338835 -0.169418
v 0.322251 0.104704 -0.169420
v 0.199160 -0.274124 -0.169420
v -0.322251 -0.104704 0.169420
v -0.199160 0.274124 0.169420
v 0.199160 0.274124 0.169420
v 0.322251 -0.104704 0.169420
v 0.000000 -0.338835 0.169418
v 0.000000 0.000000 0.378830
v -0.189413 0.061543 -0.322253
v -0.117063 -0.161125 -0.322253
v -0.306478 -0.099582 -0.199165
v 0.000000 -0.322251 -0.199164
v 0.117063 -0.161125 -0.322253
v 0.000000 0.199162 -0.322252
v -0.189414 0.260706 -0.199164
v 0.189413 0.061543 -0.322253
v 0.189414 0.260706 -0.199164
v 0.306478 -0.099582 -0.199165
v -0.117063 -0.360289 0.000000
v 0.117063 -0.360289 0.000000
v -0.378830 0.000000 0.000000
v -0.306479 -0.222671 0.000000
v -0.117063 0.360289 0.000000
v -0.306479 0.222671 0.000000
v 0.306479 0.222671 0.000000
v 0.117063 0.360289 0.000000
v 0.306479 -0.222671 0.000000
v 0.378830 0.000000 0.000000
v -0.189414 -0.260706 0.199164
v -0.306478 0.099582 0.199165
v 0.000000 0.322251 0.199164
v 0.306478 0.099582 0.199165
v 0.189414 -0.260706 0.199164
v -0.189413 -0.061543 0.322253
v 0.000000 -0.199162 0.322252
v -0.117063 0.161125 0.322253
v 0.117063 0.161125 0.322253
v 0.189413 -0.061543 0.322253
vn 0.0000 0.0000 -1.0000
vn -0.3090 -0.4253 -0.8506
vn -0.5000 0.1625 -0.8506
vn -0.5257 -0.7236 -0.4472
vn 0.0000 -0.8506 -0.5257
vn 0.0000 0.5257 -0.8506
vn 0.5000 0.1625 -0.8506
vn 0.3090 -0.4253 -0.8506
vn -0.3090 -0.9510 0.0000
vn -0.8506 0.2764 -0.4472
vn -0.8090 -0.2629 -0.5257
vn -1.0000 0.0000 0.0000
vn 0.0000 0.8944 -0.4472
vn -0.5000 0.6882 -0.5257
vn -0.3090 0.9510 0.0000
vn 0.8506 0.2764 -0.4472
vn 0.5000 0.6882 -0.5257
vn 0.8090 0.5878 0.0000
vn 0.5257 -0.7236 -0.4472
vn 0.8090 -0.2629 -0.5257
vn 0.8090 -0.5878 0.0000
vn -0.8090 -0.5878 0.0000
vn -0.8090 0.5878 0.0000
vn 0.3090 0.9510 0.0000
vn 1.0000 0.0000 0.0000
vn 0.3090 -0.9510 0.0000
vn -0.8506 -0.2764 0.4472
vn -0.5000 -0.6882 0.5257
vn -0.5000 -0.1625 0.8506
vn -0.5257 0.7236 0.4472
vn -0.8090 0.2629 0.5257
vn -0.3090 0.4253 0.8506
vn 0.5257 0.7236 0.4472
vn 0.0000 0.8506 0.5257
vn 0.3090 0.4253 0.8506
vn 0.8506 -0.2764 0.4472
vn 0.8090 0.2629 0.5257
vn 0.5000 -0.1625 0.8506
vn 0.0000 -0.8944 0.4472
vn 0.5000 -0.6882 0.5257
vn 0.0000 -0.5257 0.8506
vn 0.0000 0.0000 1.0000
usemtl SphereLight-Sphere
s 1
f 32//31 45//32 44//33
f 33//34 45//32 47//35
f 32//31 44//33 49//36
f 32//31 49//36 51//37
f 32//31 51//37 48//38
f 33//34 47//35 54//39
f 34//40 46//41 56//42
f 35//43 50//44 58//45
f 36//46 52//47 60//48
f 37//49 53//50 62//51
f 33//34 54//39 57//52
f 34//40 56//42 59//53
f 35//43 58//45 61//54
f 36//46 60//48 63//55
f 37//49 62//51 55//56
f 38//57 64//58 69//59
f 39//60 65//61 71//62
f 40//63 66//64 72//65
f 41//66 67//67 73//68
f 42//69 68//70 70//71
f 70//71 73//68 43//72
f 70//71 68//70 73//68
f 68//70 41//66 73//68
f 73//68 72//65 43//72
f 73//68 67//67 72//65
f 67//67 40//63 72//65
f 72//65 71//62 43//72
f 72//65 66//64 71//62
f 66//64 39//60 71//62
f 71//62 69//59 43//72
f 71//62 65//61 69//59
f 65//61 38//57 69//59
f 69//59 70//71 43//72
f 69//59 64//58 70//71
f 64//58 42//69 70//71
f 55//56 68//70 42//69
f 55//56 62//51 68//70
f 62//51 41//66 68//70
f 63//55 67//67 41//66
f 63//55 60//48 67//67
f 60//48 40//63 67//67
f 61//54 66//64 40//63
f 61//54 58//45 66//64
f 58//45 39//60 66//64
f 59//53 65//61 39//60
f 59//53 56//42 65//61
f 56//42 38//57 65//61
f 57//52 64//58 38//57
f 57//52 54//39 64//58
f 54//39 42//69 64//58
f 62//51 63//55 41//66
f 62//51 53//50 63//55
f 53//50 36//46 63//55
f 60//48 61//54 40//63
f 60//48 52//47 61//54
f 52//47 35//43 61//54
f 58//45 59//53 39//60
f 58//45 50//44 59//53
f 50//44 34//40 59//53
f 56//42 57//52 38//57
f 56//42 46//41 57//52
f 46//41 33//34 57//52
f 54//39 55//56 42//69
f 54//39 47//35 55//56
f 47//35 37//49 55//56
f 48//38 53//50 37//49
f 48//38 51//37 53//50
f 51//37 36//46 53//50
f 51//37 52//47 36//46
f 51//37 49//36 52//47
f 49//36 35//43 52//47
f 49//36 50//44 35//43
f 49//36 44//33 50//44
f 44//33 34//40 50//44
f 47//35 48//38 37//49
f 47//35 45//32 48//38
f 45//32 32//31 48//38
f 44//33 46//41 34//40
f 44//33 45//32 46//41
f 45//32 33//34 46//41
