# Blender v2.79 (sub 0) OBJ File: ''
# www.blender.org
mtllib mur.mtl
o mur_Cube
v 1.000000 -8.000000 -4.000006
v -1.000000 8.000006 -3.999996
v 1.000000 8.000002 -3.999995
v 1.000000 7.999992 4.000004
v -1.000000 -8.000002 3.999993
v 0.999999 -8.000010 3.999994
v -1.000000 -7.999998 -4.000006
v -1.000000 7.999997 4.000004
vt -4.599633 -6.996562
vt -3.999987 -1.000033
vt -4.599642 -1.000035
vt -4.599653 1.998245
vt -4.000026 7.994798
vt -4.599685 7.994798
vt 8.592783 1.998289
vt 2.596230 -1.000008
vt 8.592792 -0.999991
vt 2.596219 1.998272
vt 1.996575 -1.000010
vt 1.996564 1.998269
vt -3.999995 1.998248
vt -3.999981 -6.996562
vn 0.0000 0.0000 -1.0000
vn -0.0000 -0.0000 1.0000
vn 1.0000 -0.0000 0.0000
vn -0.0000 -1.0000 -0.0000
vn -1.0000 -0.0000 0.0000
vn 0.0000 1.0000 0.0000
usemtl Brique.002
s 1
f 1/1/1 2/2/1 3/3/1
f 4/4/2 5/5/2 6/6/2
f 4/7/3 1/8/3 3/9/3
f 6/10/4 7/11/4 1/8/4
f 5/12/5 2/2/5 7/11/5
f 3/3/6 8/13/6 4/4/6
f 1/1/1 7/14/1 2/2/1
f 4/4/2 8/13/2 5/5/2
f 4/7/3 6/10/3 1/8/3
f 6/10/4 5/12/4 7/11/4
f 5/12/5 8/13/5 2/2/5
f 3/3/6 2/2/6 8/13/6
