# Blender v2.79 (sub 0) OBJ File: 'projet.blend'
# www.blender.org
mtllib tunnel.mtl
o Tunnel_Cube.001
v 3.196000 8.040001 -6.403998
v 3.196000 -8.040000 0.003999
v 3.196000 8.040000 0.004001
v 3.196000 -8.039999 -6.404001
v 4.804000 -8.040000 0.003999
v 4.804000 -8.039999 -6.404001
v 4.804000 8.040000 0.004001
v 4.804000 8.040001 -6.403998
v 4.804000 -8.039999 -8.004001
v 3.196000 -8.039999 -8.004001
v 4.804000 8.040001 -8.003999
v -3.204000 -8.039999 -8.004001
v 3.196000 8.040001 -8.003999
v -3.204000 8.040001 -8.003999
v -4.804000 8.040001 -6.403998
v -3.204000 8.040001 -6.403998
v -3.204000 -8.039999 -6.404001
v -4.804000 -8.039999 -8.004001
v -4.804000 -8.039999 -6.404001
v -4.804000 8.040001 -8.003999
v -4.804000 8.040000 -0.003999
v -3.204000 8.040000 -0.003999
v -4.804000 -8.040000 -0.004001
v -3.204000 -8.040000 -0.004001
vt -0.500857 -7.736973
vt 6.995165 -4.749749
vt -0.500857 -4.749752
vt 6.995168 -7.736973
vt 7.744768 -4.749749
vt 6.995165 -1.012926
vt -0.500857 -4.000146
vt 6.995165 -4.000146
vt -1.250459 -7.736976
vt -1.250462 -4.749754
vt -2.751037 8.746817
vt -2.001435 8.000948
vt -2.001435 8.746819
vt -2.751037 8.000945
vt -2.001432 0.504930
vt -1.255564 8.000948
vt -1.255552 0.504933
vt -5.734527 8.000945
vt -2.001432 -0.240944
vt -2.751034 0.504930
vt -2.751034 -0.240944
vt -5.734531 0.504930
vt -6.480409 -0.240944
vt -5.734531 -0.240944
vt -5.734527 -7.736976
vt -2.751034 -7.736973
vt -7.226279 0.504930
vt -6.480400 8.000948
vt -7.226276 8.000948
vt -6.480409 0.504930
vt -5.734527 8.746819
vt 6.991436 -1.007829
vt -0.504588 1.975667
vt -0.504588 -1.007826
vt -0.504588 2.721540
vt 6.991437 1.975661
vt 6.991436 2.721540
vt 6.991436 5.705034
vt 7.737309 2.721540
vt 7.737309 5.705034
vt -1.250462 5.705031
vt -0.504588 5.705034
vt 7.744771 -7.736973
vt -0.500857 -1.012923
vt -6.480400 8.746819
vt -1.250459 2.721540
vn -1.0000 -0.0000 0.0000
vn 0.0000 -1.0000 -0.0000
vn 1.0000 0.0000 0.0000
vn 0.0000 1.0000 0.0000
vn 0.0000 -0.0000 1.0000
vn 0.0000 0.0000 -1.0000
usemtl Brique.001
s 1
f 1/1/1 2/2/1 3/3/1
f 4/4/2 5/5/2 2/2/2
f 6/6/3 7/7/3 5/8/3
f 8/9/4 3/3/4 7/10/4
f 5/8/5 3/3/5 2/2/5
f 4/11/2 9/12/2 6/13/2
f 10/14/6 11/15/6 9/12/6
f 6/16/3 11/15/3 8/17/3
f 4/11/2 12/18/2 10/14/2
f 8/19/4 13/20/4 1/21/4
f 14/22/4 15/23/4 16/24/4
f 10/14/6 14/22/6 13/20/6
f 13/20/4 16/24/4 1/21/4
f 1/21/5 17/25/5 4/26/5
f 15/27/1 18/28/1 19/29/1
f 12/18/6 20/30/6 14/22/6
f 17/31/2 18/28/2 12/18/2
f 19/32/1 21/33/1 15/34/1
f 22/35/5 23/36/5 24/37/5
f 17/38/2 23/39/2 19/40/2
f 15/41/4 22/35/4 16/42/4
f 16/42/3 24/37/3 17/38/3
f 1/1/1 4/4/1 2/2/1
f 4/4/2 6/43/2 5/5/2
f 6/6/3 8/44/3 7/7/3
f 8/9/4 1/1/4 3/3/4
f 5/8/5 7/7/5 3/3/5
f 4/11/2 10/14/2 9/12/2
f 10/14/6 13/20/6 11/15/6
f 6/16/3 9/12/3 11/15/3
f 4/11/2 17/31/2 12/18/2
f 8/19/4 11/15/4 13/20/4
f 14/22/4 20/30/4 15/23/4
f 10/14/6 12/18/6 14/22/6
f 13/20/4 14/22/4 16/24/4
f 1/21/5 16/24/5 17/25/5
f 15/27/1 20/30/1 18/28/1
f 12/18/6 18/28/6 20/30/6
f 17/31/2 19/45/2 18/28/2
f 19/32/1 23/36/1 21/33/1
f 22/35/5 21/33/5 23/36/5
f 17/38/2 24/37/2 23/39/2
f 15/41/4 21/46/4 22/35/4
f 16/42/3 22/35/3 24/37/3
