# Blender v2.79 (sub 0) OBJ File: ''
# www.blender.org
mtllib virage.mtl
o virage_Cube.005
v -0.800000 0.800000 0.000001
v -12.800000 -0.800000 0.000000
v -0.800000 -0.800000 0.000000
v 0.800000 0.800001 -8.000000
v 0.800000 0.800000 0.000001
v -0.800000 -0.799999 -8.000000
v -12.800000 0.800001 -8.000000
v -0.800000 0.800001 -8.000000
v 0.800000 -0.800000 0.000000
v 0.800000 -12.800000 -8.000002
v 0.800000 -0.799999 -8.000000
v -0.800000 -12.800000 -8.000002
v 0.800000 -12.800001 -0.000002
v -0.800000 -12.800001 -0.000002
v -12.800000 -0.799999 -8.000000
v -12.800000 0.800000 0.000001
vt -6.399900 -6.098927
vt -1.900635 -5.499025
vt -6.399898 -5.499024
vt 8.297739 1.999758
vt 7.697832 -0.999759
vt 8.297739 -0.999759
vt -6.399901 6.499028
vt -1.900630 7.098925
vt -6.399901 7.098929
vt 8.897639 -0.999759
vt 13.396917 1.999760
vt 8.897639 1.999758
vt -6.999799 -5.499024
vt -6.999801 -6.098927
vt -6.999802 7.098929
vt -6.399901 1.999758
vt -6.999802 -0.999759
vt -6.399899 -0.999760
vt -6.999802 6.499028
vt -1.900623 1.999758
vt -1.900622 -0.999759
vt 2.598654 1.999758
vt 7.697832 1.999758
vt 3.198557 -0.999759
vt 3.198557 1.999758
vt 2.598654 -0.999759
vt -1.900635 -6.098929
vt -1.900630 6.499021
vt 13.396917 -0.999759
vt -6.999802 1.999757
vn 0.0000 -0.0000 1.0000
vn 0.0000 1.0000 0.0000
vn 0.0000 0.0000 -1.0000
vn 1.0000 -0.0000 0.0000
vn 0.0000 -1.0000 -0.0000
vn -1.0000 -0.0000 0.0000
usemtl Brique
s 1
f 1/1/1 2/2/1 3/3/1
f 4/4/2 1/5/2 5/6/2
f 6/7/3 7/8/3 8/9/3
f 9/10/4 10/11/4 11/12/4
f 1/1/1 9/13/1 5/14/1
f 4/15/3 6/7/3 8/9/3
f 12/16/5 13/17/5 14/18/5
f 3/3/1 13/17/1 9/13/1
f 11/19/3 12/16/3 6/7/3
f 6/20/6 14/18/6 3/21/6
f 3/21/5 15/22/5 6/20/5
f 8/23/2 16/24/2 1/5/2
f 7/25/6 2/26/6 16/24/6
f 9/10/4 4/4/4 5/6/4
f 1/1/1 16/27/1 2/2/1
f 4/4/2 8/23/2 1/5/2
f 6/7/3 15/28/3 7/8/3
f 9/10/4 13/29/4 10/11/4
f 1/1/1 3/3/1 9/13/1
f 4/15/3 11/19/3 6/7/3
f 12/16/5 10/30/5 13/17/5
f 3/3/1 14/18/1 13/17/1
f 11/19/3 10/30/3 12/16/3
f 6/20/6 12/16/6 14/18/6
f 3/21/5 2/26/5 15/22/5
f 8/23/2 7/25/2 16/24/2
f 7/25/6 15/22/6 2/26/6
f 9/10/4 11/12/4 4/4/4
